<svg xmlns="http://www.w3.org/2000/svg" viewBox="0 0 25 25"><path d="M12.68 6.89c.9 0 1.63.75 1.63 1.68 0 .93-.73 1.68-1.63 1.68-.9 0-1.63-.75-1.63-1.68 0-.93.73-1.68 1.63-1.68zm0 5.74a4 4 0 0 0 3.94-4.06 4 4 0 0 0-3.94-4.06 4 4 0 0 0-3.93 4.06 4 4 0 0 0 3.93 4.06zm1.59 3.31c.8-.19 1.57-.51 2.29-.97.53-.35.7-1.09.36-1.64a1.13 1.13 0 0 0-1.59-.38 4.85 4.85 0 0 1-5.3 0 1.13 1.13 0 0 0-1.59.38c-.34.55-.17 1.29.36 1.64.72.46 1.49.78 2.29.97l-2.2 2.27a1.21 1.21 0 0 0 0 1.68c.23.24.52.35.81.35.3 0 .59-.11.82-.35l2.16-2.23 2.16 2.23c.45.47 1.18.47 1.63 0 .45-.46.45-1.21 0-1.68l-2.2-2.27z" fill="#030A1A" class="layer"/></svg>