<svg xmlns="http://www.w3.org/2000/svg" viewBox="0 0 25 25"><path d="M13.85 5.56c-.44 0-.86.22-1.13.55a2.7 2.7 0 0 0-.52 1.14 9.31 9.31 0 0 0-.24 2.09 7.46 7.46 0 0 0-3.33 1.03c-.38-.32-.84-.5-1.28-.5-.5.01-.98.23-1.33.67-.68.85-.6 2.24.18 3.06-.05.26-.08.52-.08.78 0 2.8 2.86 5.06 6.38 5.06 3.53 0 6.38-2.26 6.38-5.06 0-.26-.03-.52-.08-.78.78-.82.86-2.21.18-3.06a1.72 1.72 0 0 0-1.33-.67c-.44 0-.9.18-1.28.5a7.41 7.41 0 0 0-3.31-1.03 8.4 8.4 0 0 1 .18-1.75c.08-.3.17-.52.27-.65.1-.12.17-.17.34-.17.36 0 .41.12.63.4.11.15.23.32.43.5.21.17.51.32.83.32v-1.22c-.09 0-.11 0-.17-.05-.06-.06-.14-.18-.27-.35-.25-.32-.73-.81-1.45-.81zm3.51.11c-.84 0-1.52.77-1.52 1.71 0 .95.68 1.71 1.52 1.71s1.52-.76 1.52-1.71c0-.94-.68-1.71-1.52-1.71zm0 .61c.54 0 .98.49.98 1.1 0 .61-.44 1.11-.98 1.11s-.98-.5-.98-1.11c0-.61.44-1.1.98-1.1zm-4.86 4.01c2.99 0 5.52 1.88 5.52 4.09 0 2.22-2.53 4.09-5.52 4.09-2.99 0-5.52-1.87-5.52-4.09 0-2.21 2.53-4.09 5.52-4.09zm-5.13.55c.15.01.3.05.45.12-.54.46-.97 1-1.26 1.6-.21-.47-.15-1.06.1-1.37a.88.88 0 0 1 .71-.35zm10.26 0c.28 0 .53.12.71.35.25.31.31.9.1 1.37a4.94 4.94 0 0 0-1.26-1.6c.15-.07.3-.11.45-.12zm-7.29 1.53c-.54 0-.98.49-.98 1.1 0 .61.44 1.1.98 1.1s.98-.49.98-1.1c0-.61-.44-1.1-.98-1.1zm4.32 0c-.54 0-.98.49-.98 1.1 0 .61.44 1.1.98 1.1s.98-.49.98-1.1c0-.61-.44-1.1-.98-1.1zm-4.84 3.74c.34.81 1.4 1.58 2.68 1.58 1.28 0 2.36-.77 2.7-1.58-.62.46-1.61.77-2.7.77a4.6 4.6 0 0 1-2.68-.77z" fill="#030A1A" class="layer"/></svg>