<svg xmlns="http://www.w3.org/2000/svg" viewBox="0 0 25 25"><path d="M13.72 15.05c.45-.14 1.01.95 1.62 1.36.45.32.8.25.8.25l1.6-.02s.84-.06.45-.72c-.04-.06-.24-.5-1.2-1.4-1.01-.95-.87-.79.34-2.43.74-1 1.04-1.61.94-1.87-.08-.25-.63-.18-.63-.18l-1.81.01c-.18 0-.33.06-.39.24 0 0-.29.77-.67 1.43-.81 1.38-1.13 1.45-1.26 1.37-.31-.2-.23-.81-.23-1.24 0-1.34.2-1.9-.39-2.04a3.2 3.2 0 0 0-.85-.09c-.65-.01-1.19 0-1.5.16-.21.1-.37.33-.27.34.12.02.39.07.53.27.19.26.18.83.18.83s.11 1.58-.25 1.77c-.24.14-.58-.14-1.29-1.39-.37-.64-.65-1.36-.65-1.36s-.05-.13-.15-.2a.67.67 0 0 0-.28-.11l-1.72.01s-.26.01-.35.12c-.08.1-.01.31-.01.31s1.35 3.19 2.87 4.79c1.4 1.47 2.99 1.38 2.99 1.38h.72s.22-.03.33-.15c.1-.11.1-.32.1-.32s-.01-.97.43-1.12z" fill="#030A1A" class="layer"/></svg>