<svg xmlns="http://www.w3.org/2000/svg" xmlns:xlink="http://www.w3.org/1999/xlink"><symbol id="sprite-ok" viewBox="0 0 25 25"><path fill="#030A1A" d="M12.68 6.89c.9 0 1.63.75 1.63 1.68s-.73 1.68-1.63 1.68-1.63-.75-1.63-1.68.73-1.68 1.63-1.68m0 5.74a4 4 0 0 0 3.94-4.06 4 4 0 0 0-3.94-4.06 4 4 0 0 0-3.93 4.06 4 4 0 0 0 3.93 4.06m1.59 3.31q1.2-.28 2.29-.97c.53-.35.7-1.09.36-1.64a1.13 1.13 0 0 0-1.59-.38 4.9 4.9 0 0 1-5.3 0 1.13 1.13 0 0 0-1.59.38c-.34.55-.17 1.29.36 1.64q1.09.69 2.29.97l-2.2 2.27a1.2 1.2 0 0 0 0 1.68q.36.36.81.35.46 0 .82-.35l2.16-2.23 2.16 2.23c.45.47 1.18.47 1.63 0s.45-1.21 0-1.68z" class="layer"/></symbol><use xlink:href="#sprite-ok" width="25" height="25"/><view id="sprite-ok-view" viewBox="0 0 25 25"/><symbol id="sprite-reddit" viewBox="0 0 25 25"><path fill="#030A1A" d="M13.85 5.56c-.44 0-.86.22-1.13.55a3 3 0 0 0-.52 1.14 9 9 0 0 0-.24 2.09 7.5 7.5 0 0 0-3.33 1.03c-.38-.32-.84-.5-1.28-.5-.5.01-.98.23-1.33.67-.68.85-.6 2.24.18 3.06q-.08.39-.08.78c0 2.8 2.86 5.06 6.38 5.06s6.38-2.26 6.38-5.06q0-.39-.08-.78c.78-.82.86-2.21.18-3.06a1.7 1.7 0 0 0-1.33-.67c-.44 0-.9.18-1.28.5a7.4 7.4 0 0 0-3.31-1.03 8 8 0 0 1 .18-1.75q.12-.45.27-.65c.1-.12.17-.17.34-.17.36 0 .41.12.63.4q.15.23.43.5c.21.17.51.32.83.32v-1.22c-.09 0-.11 0-.17-.05l-.27-.35c-.25-.32-.73-.81-1.45-.81m3.51.11c-.84 0-1.52.77-1.52 1.71 0 .95.68 1.71 1.52 1.71s1.52-.76 1.52-1.71c0-.94-.68-1.71-1.52-1.71m0 .61c.54 0 .98.49.98 1.1s-.44 1.11-.98 1.11-.98-.5-.98-1.11.44-1.1.98-1.1m-4.86 4.01c2.99 0 5.52 1.88 5.52 4.09 0 2.22-2.53 4.09-5.52 4.09s-5.52-1.87-5.52-4.09 2.53-4.09 5.52-4.09m-5.13.55q.23.02.45.12-.82.7-1.26 1.6c-.21-.47-.15-1.06.1-1.37a.9.9 0 0 1 .71-.35m10.26 0q.43 0 .71.35c.25.31.31.9.1 1.37a5 5 0 0 0-1.26-1.6q.23-.1.45-.12m-7.29 1.53c-.54 0-.98.49-.98 1.1s.44 1.1.98 1.1.98-.49.98-1.1-.44-1.1-.98-1.1m4.32 0c-.54 0-.98.49-.98 1.1s.44 1.1.98 1.1.98-.49.98-1.1-.44-1.1-.98-1.1m-4.84 3.74c.34.81 1.4 1.58 2.68 1.58s2.36-.77 2.7-1.58c-.62.46-1.61.77-2.7.77a4.6 4.6 0 0 1-2.68-.77" class="layer"/></symbol><use xlink:href="#sprite-reddit" width="25" height="25" y="25"/><view id="sprite-reddit-view" viewBox="0 25 25 25"/><symbol id="sprite-rublik" fill="none" viewBox="0 0 24 34"><path fill="#102654" fill-rule="evenodd" d="M14.8 5.21h-6.8v8.65h6.8c2.43 0 4.4-1.94 4.4-4.32a4.36 4.36 0 0 0-4.4-4.33m-11.6-4.71v18.07h11.6c5.08 0 9.2-4.04 9.2-9.03a9.1 9.1 0 0 0-9.2-9.04z" clip-rule="evenodd"/><path fill="#102654" fill-rule="evenodd" d="M0 13.86h4.8v4.71h-4.8z" clip-rule="evenodd"/><path fill="#102654" fill-rule="evenodd" d="M2.93 22.75v-8.1h4.8v8.1h9.07v4.72h-9.07v6.03h-4.8v-6.03h-2.93v-4.72z" clip-rule="evenodd"/></symbol><use xlink:href="#sprite-rublik" width="24" height="34" y="50"/><view id="sprite-rublik-view" viewBox="0 50 24 34"/><symbol id="sprite-vk" viewBox="0 0 25 25"><path fill="#030A1A" d="M13.72 15.05c.45-.14 1.01.95 1.62 1.36.45.32.8.25.8.25l1.6-.02s.84-.06.45-.72c-.04-.06-.24-.5-1.2-1.4-1.01-.95-.87-.79.34-2.43q1.1-1.49.94-1.87c-.08-.25-.63-.18-.63-.18l-1.81.01q-.29-.01-.39.24s-.29.77-.67 1.43c-.81 1.38-1.13 1.45-1.26 1.37-.31-.2-.23-.81-.23-1.24 0-1.34.2-1.9-.39-2.04a3 3 0 0 0-.85-.09c-.65-.01-1.19 0-1.5.16-.21.1-.37.33-.27.34.12.02.39.07.53.27.19.26.18.83.18.83s.11 1.58-.25 1.77c-.24.14-.58-.14-1.29-1.39-.37-.64-.65-1.36-.65-1.36s-.05-.13-.15-.2a1 1 0 0 0-.28-.11l-1.72.01s-.26.01-.35.12-.01.31-.01.31 1.35 3.19 2.87 4.79c1.4 1.47 2.99 1.38 2.99 1.38h.72s.22-.03.33-.15c.1-.11.1-.32.1-.32s-.01-.97.43-1.12" class="layer"/></symbol><use xlink:href="#sprite-vk" width="25" height="25" y="84"/><view id="sprite-vk-view" viewBox="0 84 25 25"/></svg>